<svg width="120" height="22" viewBox="0 0 120 22" fill="none" xmlns="http://www.w3.org/2000/svg">
<g clip-path="url(#clip0_3504_1033)">
<path d="M52.6789 7.64844L50.7812 15.7832H50.4041L48.5699 7.97893H45.9179L44.3497 15.7832H43.9606L41.8088 7.64844H39.7285L42.4679 17.5232H45.6439L47.236 9.87426L49.0622 17.5232H52.2224L54.6322 7.64844H52.6789Z" fill="white"/>
<path d="M55.8555 7.64844V9.2969H57.3006V17.5232H59.4365V7.64844H55.8555Z" fill="white"/>
<path d="M72.5216 10.3959C72.3072 9.78672 71.9975 9.24918 71.5886 8.79127C71.1797 8.33337 70.6953 7.97501 70.1276 7.72017C69.5599 7.46534 68.9326 7.33394 68.2378 7.33394C67.4835 7.33394 66.8007 7.49719 66.1932 7.82768C65.5977 8.15021 65.1174 8.63997 64.7521 9.29298V4.14453H62.6162V17.5193H64.3154V15.4528C64.363 15.5643 64.4146 15.6758 64.4702 15.7793C64.8275 16.4522 65.3238 16.9659 65.9511 17.3163C66.5783 17.6707 67.293 17.8459 68.0989 17.8459C68.8175 17.8459 69.4686 17.7105 70.0522 17.4437C70.6358 17.1769 71.14 16.8066 71.5608 16.3368C71.9816 15.8669 72.2992 15.3254 72.5216 14.7162C72.7399 14.107 72.8511 13.446 72.8511 12.7372V12.3709C72.8511 11.6621 72.7439 11.0051 72.5295 10.3919L72.5216 10.3959ZM70.3301 14.3419C70.08 14.8595 69.7306 15.2657 69.278 15.5603C68.8294 15.855 68.3053 15.9983 67.7058 15.9983C67.1818 15.9983 66.6895 15.8828 66.225 15.6519C65.7605 15.4209 65.3873 15.0825 65.1015 14.6365C64.8156 14.1906 64.6727 13.657 64.6727 13.0319V12.2435C64.6727 11.5944 64.8117 11.045 65.0935 10.5871C65.3754 10.1291 65.7446 9.77876 66.2091 9.53189C66.6736 9.289 67.1699 9.16556 67.7058 9.16556C68.3014 9.16556 68.8214 9.30492 69.2661 9.58763C69.7107 9.87034 70.0601 10.2645 70.3182 10.7702C70.5723 11.2759 70.7033 11.8732 70.7033 12.558C70.7033 13.2429 70.5802 13.8242 70.3301 14.3459V14.3419Z" fill="white"/>
<path d="M74.3203 7.64844V9.2969H75.7654V17.5232H77.9013V7.64844H74.3203Z" fill="white"/>
<path d="M86.5957 9.24101V7.64829H83.38V4.77344H81.3513V7.64829H79.7275V9.24101H81.3513V13.9873C81.3513 14.9031 81.4942 15.6318 81.78 16.1653C82.0659 16.7029 82.4907 17.0812 83.0505 17.3001C83.6102 17.5191 84.2971 17.6306 85.1149 17.6306H86.5957V15.7632H84.9521C84.4519 15.7632 84.0668 15.6238 83.7929 15.3531C83.5189 15.0783 83.38 14.6841 83.38 14.1705V9.24101H86.5957Z" fill="white"/>
<path d="M97.8113 12.2099C97.8113 11.3538 97.6367 10.5575 97.2833 9.82088C96.93 9.08027 96.402 8.47901 95.6953 8.01713C94.9886 7.55126 94.1073 7.32031 93.0472 7.32031C92.2294 7.32031 91.5148 7.46366 90.8994 7.75035C90.2841 8.03704 89.7759 8.42327 89.3749 8.90507C88.9739 9.38686 88.6722 9.93237 88.4697 10.5336C88.2673 11.1388 88.168 11.764 88.168 12.413V12.7594C88.168 13.3925 88.2673 14.0137 88.4697 14.6189C88.6722 15.2241 88.97 15.7657 89.3749 16.2475C89.7759 16.7293 90.296 17.1195 90.9272 17.4101C91.5585 17.7048 92.3048 17.8481 93.1544 17.8481C93.9445 17.8481 94.6512 17.7128 95.2745 17.446C95.8938 17.1792 96.4099 16.793 96.8188 16.2913C97.2277 15.7896 97.4977 15.2042 97.6327 14.5313H95.6437C95.5444 14.9335 95.2784 15.2839 94.8417 15.5865C94.405 15.8891 93.8413 16.0364 93.1624 16.0364C92.4835 16.0364 91.9197 15.8851 91.483 15.5865C91.0463 15.2878 90.7208 14.8777 90.5143 14.3601C90.3595 13.9699 90.2602 13.5398 90.2245 13.07H97.8233V12.2099H97.8113ZM91.4552 9.57003C91.88 9.27537 92.412 9.13203 93.0433 9.13203C93.6745 9.13203 94.1589 9.26343 94.5598 9.52623C94.9608 9.78902 95.2665 10.1633 95.473 10.6451C95.6 10.9397 95.6874 11.2662 95.735 11.6246H90.2721C90.3238 11.322 90.4032 11.0393 90.5064 10.7805C90.7128 10.2668 91.0304 9.86468 91.4552 9.57003Z" fill="white"/>
<path d="M104.386 17.8521C103.544 17.8521 102.813 17.7088 102.186 17.4221C101.559 17.1354 101.043 16.7452 100.634 16.2514C100.225 15.7577 99.9231 15.2082 99.7207 14.603C99.5182 13.9977 99.4189 13.3845 99.4189 12.7634V12.4329C99.4189 11.7839 99.5222 11.1587 99.7286 10.5535C99.9351 9.94829 100.245 9.40279 100.662 8.91303C101.075 8.42327 101.591 8.03704 102.206 7.75035C102.821 7.46366 103.544 7.32031 104.37 7.32031C105.196 7.32031 105.962 7.47959 106.625 7.79813C107.288 8.11667 107.82 8.56661 108.225 9.14397C108.626 9.72532 108.852 10.3982 108.9 11.1667H106.835C106.764 10.6172 106.514 10.1513 106.097 9.7731C105.676 9.39483 105.1 9.2037 104.37 9.2037C103.739 9.2037 103.214 9.35103 102.798 9.6417C102.385 9.93635 102.071 10.3345 101.865 10.8402C101.658 11.3459 101.555 11.9312 101.555 12.5882C101.555 13.2452 101.654 13.7987 101.857 14.3083C102.059 14.822 102.369 15.2241 102.79 15.5188C103.21 15.8134 103.742 15.9568 104.39 15.9568C104.89 15.9568 105.319 15.8692 105.676 15.69C106.033 15.5148 106.323 15.2759 106.545 14.9773C106.764 14.6786 106.891 14.3322 106.93 13.942H109.011C108.975 14.7344 108.749 15.4232 108.336 16.0046C107.923 16.5859 107.375 17.0359 106.692 17.3584C106.009 17.6809 105.243 17.8442 104.39 17.8442L104.386 17.8521Z" fill="white"/>
<path d="M119.119 8.52833C118.527 7.7479 117.654 7.35768 116.498 7.35768H116.407C115.617 7.35768 114.962 7.54482 114.442 7.91513C113.965 8.25757 113.604 8.74334 113.354 9.3645V4.15234H111.218V17.5272H113.354V11.8293C113.354 11.0727 113.568 10.4635 113.993 9.99761C114.418 9.53174 114.978 9.30079 115.673 9.30079C116.32 9.30079 116.844 9.50386 117.253 9.91399C117.662 10.3242 117.864 10.8816 117.864 11.5904V17.5272H120V11.9049C120 10.4396 119.706 9.31672 119.115 8.53231L119.119 8.52833Z" fill="white"/>
<path d="M59.4367 4.77344H57.3008V6.91564H59.4367V4.77344Z" fill="white"/>
<path d="M77.9015 4.77344H75.7656V6.91564H77.9015V4.77344Z" fill="white"/>
<path d="M32.5309 0.832031H28.7236L26.0319 3.53169V7.35023L27.0641 8.38549L24.9758 11.9572H23.2806L21.1924 8.38549L22.2246 7.35023V3.53169L19.5329 0.832031H15.7255L13.0338 3.53169V7.35023L14.066 8.38549L11.9817 11.9572H10.2706L8.16648 8.37752L9.19076 7.35023V3.53169L6.49904 0.832031H2.69172L0 3.53169V7.35023L2.69172 10.0499H5.45491L7.55906 13.6295L6.53874 14.6568V18.4714L9.23046 21.171H13.0338L15.7255 18.4714V14.6568L14.6973 13.6216L16.7816 10.0499H18.4808L20.5651 13.6216L19.5329 14.6568V18.4714L22.2246 21.171H26.0319L28.7236 18.4714V14.6568L27.6914 13.6216L29.7797 10.0499H32.5309L35.2227 7.35023V3.53169L32.5309 0.832031Z" fill="white"/>
</g>
<defs>
<clipPath id="clip0_3504_1033">
<rect width="120" height="22" fill="white"/>
</clipPath>
</defs>
</svg>
