<svg width="120" height="22" viewBox="0 0 120 22" fill="none" xmlns="http://www.w3.org/2000/svg">
<path d="M52.6791 7.64739L50.7814 15.7822H50.4043L48.5701 7.97788H45.9181L44.3499 15.7822H43.9608L41.809 7.64739H39.7287L42.4681 17.5222H45.6441L47.2362 9.87321L49.0624 17.5222H52.2226L54.6324 7.64739H52.6791Z" fill="black"/>
<path d="M55.8552 7.64739V9.29585H57.3003V17.5222H59.4362V7.64739H55.8552Z" fill="black"/>
<path d="M72.5217 10.3948C72.3073 9.78561 71.9976 9.24807 71.5887 8.79016C71.1798 8.33226 70.6954 7.9739 70.1277 7.71906C69.56 7.46423 68.9327 7.33283 68.2379 7.33283C67.4836 7.33283 66.8008 7.49608 66.1933 7.82657C65.5978 8.1491 65.1175 8.63886 64.7522 9.29187V4.14342H62.6163V17.5182H64.3155V15.4517C64.3631 15.5632 64.4147 15.6747 64.4703 15.7782C64.8276 16.4511 65.3239 16.9648 65.9512 17.3152C66.5784 17.6696 67.2931 17.8448 68.099 17.8448C68.8176 17.8448 69.4687 17.7094 70.0523 17.4426C70.6359 17.1758 71.1401 16.8055 71.5609 16.3357C71.9817 15.8658 72.2993 15.3243 72.5217 14.7151C72.74 14.1059 72.8512 13.4449 72.8512 12.7361V12.3698C72.8512 11.661 72.744 11.004 72.5296 10.3908L72.5217 10.3948ZM70.3302 14.3408C70.0801 14.8584 69.7307 15.2646 69.2781 15.5592C68.8295 15.8539 68.3054 15.9972 67.7059 15.9972C67.1819 15.9972 66.6896 15.8817 66.2251 15.6508C65.7606 15.4198 65.3874 15.0814 65.1016 14.6354C64.8157 14.1895 64.6728 13.6559 64.6728 13.0308V12.2424C64.6728 11.5933 64.8118 11.0439 65.0936 10.586C65.3755 10.128 65.7447 9.77765 66.2092 9.53078C66.6737 9.28789 67.17 9.16445 67.7059 9.16445C68.3015 9.16445 68.8215 9.30381 69.2662 9.58652C69.7108 9.86923 70.0602 10.2634 70.3183 10.7691C70.5724 11.2748 70.7034 11.8721 70.7034 12.5569C70.7034 13.2418 70.5803 13.8231 70.3302 14.3448V14.3408Z" fill="black"/>
<path d="M74.3201 7.64739V9.29585H75.7652V17.5222H77.9011V7.64739H74.3201Z" fill="black"/>
<path d="M86.5956 9.24011V7.64739H83.3799V4.77254H81.3512V7.64739H79.7274V9.24011H81.3512V13.9864C81.3512 14.9022 81.4941 15.6309 81.7799 16.1644C82.0658 16.702 82.4906 17.0803 83.0504 17.2992C83.6101 17.5182 84.297 17.6297 85.1148 17.6297H86.5956V15.7623H84.952C84.4518 15.7623 84.0667 15.6229 83.7928 15.3522C83.5188 15.0774 83.3799 14.6832 83.3799 14.1696V9.24011H86.5956Z" fill="black"/>
<path d="M97.8111 12.2105C97.8111 11.3544 97.6365 10.5581 97.2831 9.82145C96.9298 9.08084 96.4018 8.47958 95.6951 8.0177C94.9884 7.55183 94.1071 7.32088 93.047 7.32088C92.2292 7.32088 91.5146 7.46423 90.8992 7.75092C90.2839 8.03761 89.7757 8.42384 89.3747 8.90564C88.9737 9.38743 88.672 9.93294 88.4695 10.5342C88.2671 11.1394 88.1678 11.7646 88.1678 12.4136V12.76C88.1678 13.3931 88.2671 14.0143 88.4695 14.6195C88.672 15.2247 88.9698 15.7663 89.3747 16.2481C89.7757 16.7299 90.2958 17.1201 90.927 17.4107C91.5583 17.7054 92.3046 17.8487 93.1542 17.8487C93.9443 17.8487 94.651 17.7134 95.2743 17.4466C95.8936 17.1798 96.4097 16.7936 96.8186 16.2919C97.2275 15.7902 97.4975 15.2048 97.6325 14.5319H95.6435C95.5442 14.9341 95.2782 15.2845 94.8415 15.5871C94.4048 15.8897 93.8411 16.037 93.1622 16.037C92.4833 16.037 91.9195 15.8857 91.4828 15.5871C91.0461 15.2884 90.7206 14.8783 90.5141 14.3607C90.3593 13.9705 90.26 13.5404 90.2243 13.0706H97.8231V12.2105H97.8111ZM91.455 9.5706C91.8798 9.27594 92.4118 9.1326 93.0431 9.1326C93.6743 9.1326 94.1587 9.264 94.5596 9.5268C94.9606 9.78959 95.2663 10.1639 95.4728 10.6457C95.5998 10.9403 95.6872 11.2668 95.7348 11.6252H90.2719C90.3236 11.3226 90.403 11.0399 90.5062 10.7811C90.7126 10.2674 91.0302 9.86525 91.455 9.5706Z" fill="black"/>
<path d="M104.386 17.8527C103.544 17.8527 102.813 17.7094 102.186 17.4227C101.559 17.136 101.043 16.7458 100.634 16.252C100.225 15.7583 99.9232 15.2088 99.7208 14.6036C99.5183 13.9983 99.419 13.3851 99.419 12.764V12.4335C99.419 11.7845 99.5223 11.1593 99.7287 10.5541C99.9352 9.94886 100.245 9.40336 100.662 8.9136C101.075 8.42384 101.591 8.03761 102.206 7.75092C102.821 7.46423 103.544 7.32088 104.37 7.32088C105.196 7.32088 105.962 7.48016 106.625 7.7987C107.288 8.11724 107.82 8.56718 108.225 9.14454C108.626 9.72589 108.852 10.3988 108.9 11.1673H106.835C106.764 10.6178 106.514 10.1519 106.097 9.77367C105.676 9.3954 105.1 9.20427 104.37 9.20427C103.739 9.20427 103.214 9.3516 102.798 9.64227C102.385 9.93692 102.071 10.3351 101.865 10.8408C101.658 11.3465 101.555 11.9318 101.555 12.5888C101.555 13.2458 101.654 13.7993 101.857 14.3089C102.059 14.8226 102.369 15.2247 102.79 15.5194C103.21 15.814 103.742 15.9574 104.39 15.9574C104.89 15.9574 105.319 15.8698 105.676 15.6906C106.033 15.5154 106.323 15.2765 106.545 14.9779C106.764 14.6792 106.891 14.3328 106.93 13.9426H109.011C108.975 14.735 108.749 15.4238 108.336 16.0052C107.923 16.5865 107.375 17.0365 106.692 17.359C106.009 17.6815 105.243 17.8448 104.39 17.8448L104.386 17.8527Z" fill="black"/>
<path d="M119.119 8.52737C118.527 7.74694 117.654 7.35672 116.498 7.35672H116.407C115.617 7.35672 114.962 7.54386 114.442 7.91417C113.965 8.25661 113.604 8.74238 113.354 9.36354V4.15138H111.218V17.5262H113.354V11.8283C113.354 11.0717 113.568 10.4625 113.993 9.99665C114.418 9.53078 114.978 9.29983 115.673 9.29983C116.32 9.29983 116.844 9.5029 117.253 9.91303C117.662 10.3232 117.864 10.8806 117.864 11.5894V17.5262H120V11.9039C120 10.4386 119.706 9.31576 119.115 8.53135L119.119 8.52737Z" fill="black"/>
<path d="M59.4362 4.77254H57.3003V6.91474H59.4362V4.77254Z" fill="black"/>
<path d="M77.9011 4.77254H75.7652V6.91474H77.9011V4.77254Z" fill="black"/>
<path d="M32.5309 0.830566H28.7236L26.0319 3.53022V7.34876L27.0641 8.38402L24.9758 11.9557H23.2806L21.1924 8.38402L22.2246 7.34876V3.53022L19.5329 0.830566H15.7255L13.0338 3.53022V7.34876L14.066 8.38402L11.9817 11.9557H10.2706L8.16648 8.37606L9.19076 7.34876V3.53022L6.49904 0.830566H2.69172L0 3.53022V7.34876L2.69172 10.0484H5.45491L7.55906 13.628L6.53874 14.6553V18.4699L9.23046 21.1695H13.0338L15.7255 18.4699V14.6553L14.6973 13.6201L16.7816 10.0484H18.4808L20.5651 13.6201L19.5329 14.6553V18.4699L22.2246 21.1695H26.0319L28.7236 18.4699V14.6553L27.6914 13.6201L29.7797 10.0484H32.5309L35.2227 7.34876V3.53022L32.5309 0.830566Z" fill="black"/>
</svg>
